<?xml version="1.0" standalone="no"?>
<!DOCTYPE svg PUBLIC "-//W3C//DTD SVG 20010904//EN"
 "http://www.w3.org/TR/2001/REC-SVG-20010904/DTD/svg10.dtd">
<svg version="1.0" xmlns="http://www.w3.org/2000/svg"
 width="96.000000pt" height="96.000000pt" viewBox="0 0 96.000000 96.000000"
 preserveAspectRatio="xMidYMid meet">
<metadata>
Created by potrace 1.14, written by Peter Selinger 2001-2017
</metadata>
<g transform="translate(0.000000,96.000000) scale(0.100000,-0.100000)"
fill="#000000" stroke="none">
<path d="M426 767 c-27 -78 -52 -146 -56 -150 -6 -7 -150 -15 -298 -17 -32 0
-28 -4 85 -91 65 -50 124 -97 131 -103 10 -9 3 -42 -32 -161 -25 -82 -43 -151
-41 -153 2 -2 61 35 130 82 69 47 130 86 135 86 5 0 66 -39 135 -86 70 -47
128 -84 130 -82 2 2 -16 71 -40 153 -24 81 -42 151 -40 155 2 4 60 49 129 101
68 52 123 95 122 96 -1 1 -73 5 -161 7 -87 3 -161 9 -165 13 -4 4 -29 72 -56
150 -27 79 -51 143 -54 143 -3 0 -27 -64 -54 -143z m78 -156 c10 -33 22 -64
25 -70 4 -6 37 -12 75 -13 37 -1 69 -5 72 -9 2 -4 -21 -25 -51 -48 -30 -23
-55 -46 -55 -50 0 -5 9 -38 20 -72 10 -35 18 -64 17 -66 -2 -1 -31 16 -65 39
l-62 41 -62 -42 c-34 -22 -63 -40 -64 -38 -2 1 6 34 18 72 l21 68 -25 21 c-13
12 -42 35 -64 53 l-39 31 35 0 c19 0 56 0 82 1 l47 1 22 70 c13 39 25 70 28
70 4 0 15 -27 25 -59z"/>
</g>
</svg>
